# xmcd
# 
# Track frame offsets:
#     150
#     3965
#     8265
#     14378
#     21117
#     27480
#     31292
#     34705
#     38692
#     45517
#     53141
#     57390
#     65698
#     68773
#     72248
#     75560
#     81035
#     85886
#     90538
#     95551
#     99801
#     103863
#     109851
#     115288
#     120418
#     124181
#     128106
#     132868
#     139018
#     143285
#     149750
#     154432
#     158495
#     163845
#     169057
#     175446
#     181298
#     185511
#     190211
#     195311
#     201273
#     207877
#     213143
#     217817
#     222029
#     225954
#     231592
#     237442
#     245115
#     249099
#     252999
#     258987
#     264099
#     273174
#     280262
#     286634
#     292362
#     298950
#     305713
#     310500
#     315963
#     322382
#     328986
# 
# Disc length: 4499
# 
# Revision: 0
# Processed by: cddbd v1.5.2PL0 Copyright (c) Steve Scherf et al.
# Submitted via: fre:ac v1.0.17
# 
DISCID=8811913f
DTITLE=PONS - Curs de italiană pentru începători
DYEAR=2002
DGENRE=audiobook
TTITLE0=1a Dialog
TTITLE1=1b Dialog
TTITLE2=1 Exerciţii
TTITLE3=1a Vocabular
TTITLE4=1b Vocabular
TTITLE5=2a Dialog
TTITLE6=2b Dialog
TTITLE7=2c Dialog
TTITLE8=2 Exerciţiu
TTITLE9=2a Vocabular
TTITLE10=2b Vocabular
TTITLE11=2c Vocabular
TTITLE12=3a Dialog
TTITLE13=3b Dialog
TTITLE14=3c Dialog
TTITLE15=3 Exerciţii
TTITLE16=3a Vocabular
TTITLE17=3b Vocabular
TTITLE18=3c Vocabular
TTITLE19=4a Dialog
TTITLE20=4b Dialog
TTITLE21=4 Exerciţii
TTITLE22=4a Vocabular
TTITLE23=4b Vocabular
TTITLE24=5a Dialog
TTITLE25=5b Dialog
TTITLE26=5c Dialog
TTITLE27=5 Exerciţiu
TTITLE28=5a Vocabular
TTITLE29=5b Vocabular
TTITLE30=5c Vocabular
TTITLE31=6a Dialog
TTITLE32=6b Dialog
TTITLE33=6 Exerciţiu
TTITLE34=6a Vocabular
TTITLE35=6b Vocabular
TTITLE36=7a Dialog
TTITLE37=7b Dialog
TTITLE38=7c Dialog
TTITLE39=7 Exerciţiu
TTITLE40=7a Vocabular
TTITLE41=7b Vocabular
TTITLE42=7c Vocabular
TTITLE43=8a Dialog
TTITLE44=8b Dialog
TTITLE45=8c Dialog
TTITLE46=8 Exerciţii
TTITLE47=8a Vocabular
TTITLE48=8b Vocabular
TTITLE49=8c Vocabular
TTITLE50=9a Dialog
TTITLE51=9b Dialog
TTITLE52=9c Dialog
TTITLE53=9 Exerciţiu
TTITLE54=9a Vocabular
TTITLE55=9b Vocabular
TTITLE56=9c Vocabular
TTITLE57=10a Dialog
TTITLE58=10b Dialog
TTITLE59=10c Dialog
TTITLE60=10a Vocabular
TTITLE61=10b Vocabular
TTITLE62=10c Vocabular
EXTD=YEAR: 2002
EXTT0=
EXTT1=
EXTT2=
EXTT3=
EXTT4=
EXTT5=
EXTT6=
EXTT7=
EXTT8=
EXTT9=
EXTT10=
EXTT11=
EXTT12=
EXTT13=
EXTT14=
EXTT15=
EXTT16=
EXTT17=
EXTT18=
EXTT19=
EXTT20=
EXTT21=
EXTT22=
EXTT23=
EXTT24=
EXTT25=
EXTT26=
EXTT27=
EXTT28=
EXTT29=
EXTT30=
EXTT31=
EXTT32=
EXTT33=
EXTT34=
EXTT35=
EXTT36=
EXTT37=
EXTT38=
EXTT39=
EXTT40=
EXTT41=
EXTT42=
EXTT43=
EXTT44=
EXTT45=
EXTT46=
EXTT47=
EXTT48=
EXTT49=
EXTT50=
EXTT51=
EXTT52=
EXTT53=
EXTT54=
EXTT55=
EXTT56=
EXTT57=
EXTT58=
EXTT59=
EXTT60=
EXTT61=
EXTT62=
PLAYORDER=
